<svg width="24" height="28" viewBox="0 0 24 28" fill="none" xmlns="http://www.w3.org/2000/svg">
<path fill-rule="evenodd" clip-rule="evenodd" d="M9.42859 23.0913C9.42859 23.417 9.17145 23.5885 8.86288 23.5027C6.78808 22.8391 4.97783 21.5333 3.6934 19.7739C2.40896 18.0145 1.7168 15.8925 1.7168 13.7142C1.7168 11.5358 2.40896 9.41381 3.6934 7.65442C4.97783 5.89502 6.78808 4.58926 8.86288 3.9256C9.17145 3.82274 9.42859 4.01132 9.42859 4.33703V5.1256C9.42859 5.34846 9.25717 5.58846 9.05145 5.65703C5.77717 6.85703 3.42859 10.0113 3.42859 13.697C3.42859 17.3827 5.77717 20.537 9.05145 21.737C9.25717 21.8056 9.42859 22.0627 9.42859 22.2685V23.0742V23.0913Z" fill="#FFC795"/>
<path fill-rule="evenodd" clip-rule="evenodd" d="M12.8576 20.1432C12.8576 20.3832 12.669 20.5718 12.429 20.5718H11.5719C11.3319 20.5718 11.1433 20.3832 11.1433 20.1432V18.7889C9.27474 18.5318 8.36617 17.486 8.10903 16.0632C8.0576 15.8232 8.26331 15.6003 8.50331 15.6003H9.48046C9.68617 15.6003 9.8576 15.7375 9.89188 15.9432C10.0805 16.8003 10.5605 17.4346 12.069 17.4346C13.1833 17.4346 13.9547 16.8175 13.9547 15.8918C13.9547 14.966 13.4919 14.6232 11.8633 14.3489C9.46331 14.0232 8.33188 13.3032 8.33188 11.4175C8.33188 9.96033 9.42903 8.84605 11.1262 8.5889V7.2689C11.1262 7.0289 11.3147 6.84033 11.5547 6.84033H12.4119C12.6519 6.84033 12.8405 7.0289 12.8405 7.2689V8.64033C14.229 8.88033 15.1033 9.6689 15.3776 10.9718C15.429 11.2118 15.2405 11.4518 14.9833 11.4518H14.0747C13.8862 11.4518 13.7147 11.3146 13.6633 11.1432C13.4233 10.3203 12.8233 9.96033 11.8119 9.96033C10.6805 9.96033 10.0976 10.5089 10.0976 11.2803C10.0976 12.086 10.4233 12.4975 12.1719 12.7546C14.5205 13.0803 15.7376 13.7489 15.7376 15.7546C15.7376 17.2803 14.6062 18.5146 12.8405 18.7889V20.1432H12.8576Z" fill="#FFC795"/>
<path fill-rule="evenodd" clip-rule="evenodd" d="M15.137 23.5026C14.8284 23.6055 14.5713 23.4169 14.5713 23.0912V22.3026C14.5713 22.0626 14.7084 21.8398 14.9484 21.7712C18.2227 20.5712 20.5713 17.4169 20.5713 13.7312C20.5713 10.0455 18.2227 6.89121 14.9484 5.69121C14.8422 5.64664 14.7506 5.57325 14.684 5.47933C14.6174 5.38542 14.5783 5.27473 14.5713 5.15978V4.37121C14.5713 4.0455 14.8284 3.85692 15.137 3.95978C19.2856 5.27978 22.2856 9.17121 22.2856 13.7484C22.2856 18.3255 19.2856 22.1998 15.137 23.5369V23.5026Z" fill="#FFC795"/>
</svg>
